<svg xmlns="http://www.w3.org/2000/svg" width="800" height="600" viewBox="0 0 800 600">
  <defs>
    <linearGradient id="sky" x1="0" y1="0" x2="0" y2="1">
      <stop offset="0%" stop-color="#0B1020"/>
      <stop offset="100%" stop-color="#15223B"/>
    </linearGradient>
    <linearGradient id="accent" x1="0" y1="0" x2="1" y2="1">
      <stop offset="0%" stop-color="#5B9BD5"/>
      <stop offset="100%" stop-color="#7FC1FF"/>
    </linearGradient>
    <filter id="glow" x="-50%" y="-50%" width="200%" height="200%">
      <feGaussianBlur stdDeviation="12" result="b"/>
      <feMerge>
        <feMergeNode in="b"/>
        <feMergeNode in="b"/>
        <feMergeNode in="SourceGraphic"/>
      </feMerge>
    </filter>
  </defs>
  <rect width="800" height="600" fill="url(#sky)"/>
  <g transform="translate(400,300)" filter="url(#glow)">
    <ellipse cx="0" cy="130" rx="220" ry="36" fill="#000" opacity="0.35"/>
    <g>
      <circle cx="0" cy="-10" r="120" fill="rgba(255,255,255,0.06)" stroke="rgba(255,255,255,0.25)"/>
      <rect x="-140" y="-30" width="280" height="180" rx="28" fill="rgba(255,255,255,0.10)" stroke="rgba(255,255,255,0.35)"/>
      <rect x="-100" y="10" width="200" height="90" rx="12" fill="url(#accent)"/>
      <circle cx="-40" cy="55" r="18" fill="#fff"/>
      <circle cx="40" cy="55" r="18" fill="#fff"/>
      <rect x="-18" y="80" width="36" height="6" rx="3" fill="#fff" opacity="0.9"/>
    </g>
    <g>
      <path d="M-110 -130 q-30 -80 20 -100 q50 -20 40 30 q-8 46 -30 90" fill="rgba(255,255,255,0.10)" stroke="rgba(255,255,255,0.35)"/>
      <path d="M110 -130 q30 -80 -20 -100 q-50 -20 -40 30 q8 46 30 90" fill="rgba(255,255,255,0.10)" stroke="rgba(255,255,255,0.35)"/>
    </g>
    <text x="0" y="-160" text-anchor="middle" font-family="Inter, system-ui, Arial" font-size="28" fill="#9ecfff">AI Bunty (placeholder)</text>
  </g>
</svg>