<svg xmlns="http://www.w3.org/2000/svg" width="256" height="256" viewBox="0 0 256 256">
  <defs>
    <linearGradient id="g" x1="0" y1="0" x2="1" y2="1">
      <stop offset="0%" stop-color="#5B9BD5"/>
      <stop offset="100%" stop-color="#7FC1FF"/>
    </linearGradient>
    <filter id="glass" x="-20%" y="-20%" width="140%" height="140%">
      <feGaussianBlur in="SourceGraphic" stdDeviation="0.5"/>
    </filter>
  </defs>
  <rect x="16" y="16" width="224" height="224" rx="48" fill="url(#g)"/>
  <g fill="#ffffff" opacity="0.9" filter="url(#glass)">
    <path d="M96 64c-35.346 0-64 28.654-64 64s28.654 64 64 64h48c8.837 0 16-7.163 16-16v-16c0-8.837-7.163-16-16-16h-40c-17.673 0-32-14.327-32-32s14.327-32 32-32h40c8.837 0 16-7.163 16-16V80c0-8.837-7.163-16-16-16H96z"/>
  </g>
</svg>